# xmcd CD database file
#
# Track frame offsets:
#	150
#	13566
#	29943
#	52803
#	71909
#	90342
#	112620
#	126445
#	141240
#	154836
#	175643
#	187066
#	201155
#	213719
#	226904
#	242346
#
# Disc length: 3460 seconds
#
# Revision: 1
# Processed by: cddbd v1.5.2PL0 Copyright (c) Steve Scherf et al.
# Submitted via: CDex 1.70beta2
#
DISCID=dc0d8210
DTITLE=Fiona Boyes - Blues for Hard Times
DYEAR=2011
DGENRE=Blues
TTITLE0=Nickels and Dimes
TTITLE1=Chain Gang
TTITLE2=Guys Be Wise
TTITLE3=Mean World
TTITLE4=High Time
TTITLE5=Baptized in Muddy's Sweat
TTITLE6=I Let the Blues In
TTITLE7=Maybe I Could Be Your Girl
TTITLE8=Drink to Your Health
TTITLE9=God and The Devil
TTITLE10=She Could Play That Thing
TTITLE11=Pony Ride
TTITLE12=No Friends
TTITLE13=Grandma's Advice
TTITLE14=The Preacher
TTITLE15=Jesus Took Possession
EXTD=YEAR: 2011
EXTT0=
EXTT1=
EXTT2=
EXTT3=
EXTT4=
EXTT5=
EXTT6=
EXTT7=
EXTT8=
EXTT9=
EXTT10=
EXTT11=
EXTT12=
EXTT13=
EXTT14=
EXTT15=
PLAYORDER=
